<svg width="74" height="74" viewBox="0 0 74 74" fill="none" xmlns="http://www.w3.org/2000/svg">
<g filter="url(#filter0_d_274_2382)">
<circle cx="37" cy="37" r="27" fill="white" style="fill:white;fill-opacity:1;"/>
</g>
<path d="M29.9226 45.6481C29.818 45.7597 29.6939 45.8482 29.5572 45.9085C29.4206 45.9689 29.2741 46 29.1262 46C28.9783 46 28.8319 45.9689 28.6952 45.9085C28.5586 45.8482 28.4345 45.7597 28.3299 45.6481C28.2253 45.5366 28.1423 45.4041 28.0857 45.2583C28.0291 45.1126 28 44.9564 28 44.7986C28 44.6408 28.0291 44.4846 28.0857 44.3388C28.1423 44.1931 28.2253 44.0606 28.3299 43.9491L36.2036 35.5498C36.3081 35.438 36.4322 35.3494 36.5689 35.2889C36.7055 35.2284 36.852 35.1972 37 35.1972C37.148 35.1972 37.2945 35.2284 37.4311 35.2889C37.5678 35.3494 37.6919 35.438 37.7964 35.5498L45.6701 43.9491C45.7747 44.0606 45.8577 44.1931 45.9143 44.3388C45.9709 44.4846 46 44.6408 46 44.7986C46 44.9564 45.9709 45.1126 45.9143 45.2583C45.8577 45.4041 45.7747 45.5366 45.6701 45.6481C45.5656 45.7597 45.4414 45.8482 45.3048 45.9085C45.1681 45.9689 45.0217 46 44.8738 46C44.7259 46 44.5794 45.9689 44.4428 45.9085C44.3061 45.8482 44.182 45.7597 44.0774 45.6481L37 38.0959L29.9226 45.6481ZM29.1262 28C28.8279 28 28.5418 28.1264 28.3309 28.3514C28.1199 28.5765 28.0014 28.8817 28.0014 29.1999C28.0014 29.5181 28.1199 29.8233 28.3309 30.0484C28.5418 30.2734 28.8279 30.3998 29.1262 30.3998L44.8738 30.3998C45.1721 30.3998 45.4582 30.2734 45.6691 30.0484C45.8801 29.8233 45.9986 29.5181 45.9986 29.1999C45.9986 28.8817 45.8801 28.5765 45.6691 28.3514C45.4582 28.1264 45.1721 28 44.8738 28L29.1262 28Z" fill="black" style="fill:black;fill-opacity:1;"/>
<defs>
<filter id="filter0_d_274_2382" x="0" y="0" width="74" height="74" filterUnits="userSpaceOnUse" color-interpolation-filters="sRGB">
<feFlood flood-opacity="0" result="BackgroundImageFix"/>
<feColorMatrix in="SourceAlpha" type="matrix" values="0 0 0 0 0 0 0 0 0 0 0 0 0 0 0 0 0 0 127 0" result="hardAlpha"/>
<feOffset/>
<feGaussianBlur stdDeviation="5"/>
<feComposite in2="hardAlpha" operator="out"/>
<feColorMatrix type="matrix" values="0 0 0 0 0 0 0 0 0 0 0 0 0 0 0 0 0 0 0.12 0"/>
<feBlend mode="normal" in2="BackgroundImageFix" result="effect1_dropShadow_274_2382"/>
<feBlend mode="normal" in="SourceGraphic" in2="effect1_dropShadow_274_2382" result="shape"/>
</filter>
</defs>
</svg>
