<svg width="46" height="46" viewBox="0 0 46 46" fill="none" xmlns="http://www.w3.org/2000/svg">
<path d="M0 20.4444H20.4444V0H0V20.4444ZM5.11111 5.11111H15.3333V15.3333H5.11111V5.11111ZM0 46H20.4444V25.5556H0V46ZM5.11111 30.6667H15.3333V40.8889H5.11111V30.6667ZM25.5556 0V20.4444H46V0H25.5556ZM40.8889 15.3333H30.6667V5.11111H40.8889V15.3333ZM40.8889 40.8889H46V46H40.8889V40.8889ZM25.5556 25.5556H30.6667V30.6667H25.5556V25.5556ZM30.6667 30.6667H35.7778V35.7778H30.6667V30.6667ZM25.5556 35.7778H30.6667V40.8889H25.5556V35.7778ZM30.6667 40.8889H35.7778V46H30.6667V40.8889ZM35.7778 35.7778H40.8889V40.8889H35.7778V35.7778ZM35.7778 25.5556H40.8889V30.6667H35.7778V25.5556ZM40.8889 30.6667H46V35.7778H40.8889V30.6667Z" fill="white" style="fill:white;fill-opacity:1;"/>
</svg>
